<svg version="1.2" xmlns="http://www.w3.org/2000/svg" viewBox="0 0 2000 1125" width="2000" height="1125">
	<title>logo</title>
	<style>
		.s0 { opacity: .99;fill: #211e1f } 
		.s1 { opacity: .99;fill: #0152cd } 
	</style>
	<g id="Background">
		<path id="Path 0" fill-rule="evenodd" class="s0" d="m1297.4 136.8c1.7 0 9.8 3.4 18.2 7.6 14.5 7.3 13.5 10.9-64.6 158l35.1 73.9 13.6-22.8c7.5-12.6 21.5-41.7 31.2-64.6 9.7-23 20.7-45.3 24.5-49.5 4.3-4.6 5.1 4.3 2.1 22.8-2.7 16.8-11.3 52.7-19.1 79.9-7.7 27.1-20.3 57.2-28 66.7-11.6 14.6-17.8 16.4-39.2 11.4-16.3-3.8-30.4-14.1-53.1-51.5l-24.6 49.4c-21.5 43.1-25.5 47.4-31.7 34.2-5.3-11.3-1.3-30.1 15.3-72.2 14.2-35.9 20.2-61.3 16.3-68.4-3.4-6.3-7.7-9.7-9.6-7.6-1.8 2-19.5 36.3-39.3 76-19.7 39.7-41.5 78.3-48.4 85.7-6.8 7.5-18.4 13.5-25.8 13.3-9.4-0.1-14.9-9.1-19-30.8-3.1-16.8-7.4-30.3-9.5-30-2.1 0.2-12.3 18.3-22.8 40-16.6 34.6-21.8 39.6-41.7 39.6-17.7 0-25.2-5.1-34-22.8-7.4-14.9-11.4-46.4-11.5-91.2-0.2-46.8 4-79.8 13.1-104.6 7.3-19.8 20.7-41.2 29.8-47.5 9.1-6.2 29.7-11.4 45.7-11.4 21 0 31.7 4.3 38.5 15.4 6.9 11.2 14.8 14.3 28.6 11.4 10.4-2.3 24.1-0.8 30.4 3.2 10 6.4 10 10.9 0.6 36.2-5.9 15.9-12.8 41.9-15.2 57.9-2.4 15.9-2.7 30.2-0.6 31.7 2.1 1.6 19.2-22.7 38-53.9 33-54.7 34-58.1 27.7-95.3-5.6-33.1-4.6-40 7.3-49.2 7.6-5.8 20-10.6 27.4-10.6 10.2 0 14.6 7.7 17.4 30.4 2.1 16.8 7.3 32.2 11.4 34.2 4.2 2.1 16.6-14.1 27.6-36.1 10.9-21.9 23.3-44.1 27.4-49.4 4.2-5.2 8.9-9.5 10.5-9.5zm-307.3 250.9c-2.6 51-1.7 55.8 8.7 45.6 6.4-6.3 18.7-29.4 27.3-51.3 9.1-23.2 15.7-57.4 15.7-81.7 0-24-3.4-41.9-7.9-41.9-4.4 0-15.4 16.3-24.4 36.2-10.6 23.3-17.5 56.3-19.4 93.1zm159.5 113.9c9.7-0.1 28.8 3.3 42.4 7.6 14.4 4.4 26.3 14.1 28.5 22.9 2.1 8.4-0.7 26.3-6.3 39.9-5.6 13.6-26.2 44.4-45.7 68.4-29.7 36.7-34.5 46.9-29.7 63.7 3.1 11 8.3 21.3 11.4 22.8 3.1 1.6 11.7-2 19-8 7.3-5.9 28.7-41.9 47.5-79.9 18.9-38 36.8-69.1 40-69 3.1 0.1 3.6 9.5 1.1 21-2.5 11.5-15.2 50-28.3 85.5-13 35.6-31.5 74-41.1 85.5-10.4 12.6-24.8 20.9-36.3 20.9-11.4 0-26-8.3-36.5-20.9-9.7-11.5-19.9-28.6-22.8-38-3-9.4-7.9-17.1-11.1-17-3.1 0-12.4 16.2-20.6 36.1-8.2 19.8-27 49-41.8 64.9-14.8 15.9-33.7 28.7-42.1 28.6-8.4-0.2-22.1-5-30.4-10.6-8.4-5.7-21.6-23.7-43.6-69.7l-20.2 49.4c-16.4 40-23.9 49.9-39.1 52-15.7 2.1-21-2.6-32.1-28.5-7.3-17.1-13.3-37.9-13.3-46.3 0-8.3-2.6-15.2-5.7-15.3-3.2-0.1-8.3 12.7-11.3 28.5-3.1 15.8-5.6 40.6-5.5 55.3 0.1 17.4-5.4 31.8-32.2 57l-18.3-20.9c-10-11.5-20-32.9-22.1-47.6-2.1-14.6-6.3-26.6-9.5-26.6-3.1 0-13.9 23.1-23.8 51.3-10 28.3-23.7 57.5-30.5 64.9-6.7 7.5-18.2 13.5-25.5 13.3-8.3-0.1-15-8.1-17.8-21.1-2.4-11.5-6.2-26.1-8.3-32.3-2.4-7.2-10.7 3.4-22.2 28.5-10 21.9-25.1 43.3-33.5 47.5q-15.2 7.6-30.4 0c-8.9-4.5-18.6-21.1-23.5-39.9-4.5-17.8-8.8-54.6-9.5-81.8-0.6-27.1 1.4-62.2 4.5-77.9 5.1-25.5 4.3-27.8-7.6-21.7-8.9 4.5-17.7 26.6-26.4 66.5-7.2 32.9-25.9 85.4-41.6 116.8-16.6 33.1-44.6 73-66.8 95.1-21 21-55.3 46.5-76.2 56.7-21 10.2-56.9 20.1-79.9 21.9-36.5 3-44.1 1.1-60-14.9-14.3-14.3-17-23-13.1-41 2.7-12.6 14.6-36.5 26.5-53.2 21.4-30.3 21.4-30.8 14.2-98.8-4.9-45.4-4.6-95.3 0.7-148.3 4.4-43.9 11.6-89.2 16-100.7 4.9-12.6 18.7-25.4 34.7-32.3 14.7-6.3 35.2-11.4 45.6-11.4 10.5 0 19 2.6 19 5.7 0 3.1-11.7 51.9-26 108.3-14.3 56.5-28.6 124.9-37.6 201.5l60.6-49.4c33.3-27.2 72.4-58.4 113.3-89.4l-0.2-71.3c-0.1-52.5-3.6-77.7-13.3-95.9-7.2-13.6-23.4-29.8-35.9-36.1-12.6-6.3-33.9-11.4-47.5-11.4-13.6 0-46.1 10.3-72.3 22.8-26.1 12.5-64.5 39.1-85.2 58.9-22.6 21.6-40.2 46.1-43.8 61-3.3 13.7-8.5 24.8-11.7 24.7-3.1-0.1-13.4-5-22.8-10.9-9.4-5.8-21.7-20.4-27.2-32.3-8.7-18.4-8.4-25.2 1.9-46.3 6.6-13.6 26.6-34.6 44.3-46.8 17.8-12.1 59.7-31.2 93.2-42.5 33.4-11.2 83.1-22.4 110.3-24.8 35.6-3.2 59-1 83.6 7.8 18.8 6.7 45.3 24.4 58.9 39.3 13.8 15.2 29.8 44.7 36.2 67 6.4 22 11.5 49.3 11.4 60.8 0 11.5 0.8 20.9 1.9 20.9 1 0 19-8.6 39.9-19.1 20.9-10.6 50.8-19.1 66.5-19 19.6 0.1 31.5 4.7 38.1 14.6 7.7 11.7 14.9 13.5 38.1 9.5 25.2-4.4 28.6-3.2 28.7 10.2 0 8.4-5.1 28.1-11.5 43.7-6.4 15.7-11.5 41.4-10.9 85.6l25.9-49.5c14.2-27.1 26-59.6 26.2-72.2 0.2-12.5 4.6-42.6 9.9-66.9 8.5-39.4 12-44.8 32.3-50.2 12.6-3.3 28.8-3.1 36.2 0.4 12.3 6 12.4 8.9 1.7 38.8-6.4 17.8-11.3 40.9-10.3 70.3l7.6-19c4.2-10.4 12.4-29.2 18.3-41.8 5.8-12.5 19.3-27.1 29.9-32.3 10.6-5.2 27.9-9.5 38.3-9.5 10.5 0 19.1 4.3 19.2 9.5 0.1 5.2-5 22.3-11.4 38-6.4 15.7-11.4 48.2-10.9 115.9l19.5-38c10.7-20.9 20.8-54.2 22.5-74.1 1.6-19.8 8.1-48.1 14.3-62.7 7.3-17 20.4-30.4 36.2-37.3 13.6-5.8 39.3-15.2 57.1-20.9 28-8.8 34.1-8.7 44.4 1.2 9 8.6 10.8 19.9 7.4 45.6-2.6 18.8-11.6 46.2-20.2 60.8-12.4 21.3-17.3 24.7-24.6 16.8-5-5.5-8.2-26.3-7.1-47.5 1.1-21.3-1.4-37.7-5.7-37.7-4.2 0-13.1 12.8-19.7 28.5-6.7 15.7-13.9 43.9-16.1 62.7-2.1 18.8-0.1 48.8 4.6 66.5 4.6 17.8 13.5 34 19.8 36.1 6.3 2.1 17-0.4 23.8-5.7 6.8-5.2 23.9-32.6 38-60.8 15.4-30.7 25.7-62.7 25.7-79.8 0-15.7 3.9-42.2 8.6-58.9 4.8-16.7 18.2-39.8 29.8-51.3 11.7-11.5 29.2-21 38.9-21zm-14.5 127.2c-0.6 16.9 3 12.8 18.3-20.7 11-23.9 16.3-44.8 12.6-48.8-3.9-4.2-11.5 4.3-18.4 20.6-6.4 15.3-12.1 37.2-12.5 48.9zm-603.2 175c-4.4 19.9-7 49.8-5.7 66.6 1.3 16.7 5.5 30.4 9.5 30.4 3.9 0 14.8-18.9 24.3-41.8 10.7-26 17.7-59.7 18.4-88.9 0.6-25.9-2.5-49.2-6.9-51.9-4.3-2.6-13.2 7.4-19.8 22.4-6.5 14.9-15.4 43.4-19.8 63.2zm-305.2 126.3l-32.8 36.9c17.1 54 17.6 65.1 11.7 70.6-5.6 5.1-13.2 4.5-23.3-1.9-8.2-5.2-16.7-9.5-18.8-9.5-2.1 0-3.8 12-3.8 26.6 0 16.1 3.7 26.7 9.5 26.8 5.2 0 26.4-9.9 47-22.2 22.5-13.4 47.3-37 61.8-59.1 13.4-20.2 31.2-50.4 39.6-67.1 8.4-16.8 20.2-49 26.3-71.6 6-22.7 10.4-42.3 9.7-43.6-0.7-1.3-22.2 15.5-47.7 37.4-25.6 21.9-61.2 56.4-79.2 76.7z"/>
		<path id="Path 1" fill-rule="evenodd" class="s1" d="m1678.7 0.9c5.2-0.5 14.6 4.2 20.9 10.5 6.3 6.3 11.4 13.1 11.4 15.2 0 2.1-4.6 14.9-10.3 28.5-5.7 13.6-18 31.6-44.4 55.1l17.8 4.1c10 2.3 19 10.8 20.3 19 2 12.3-18.5 26-114 76.5-64.1 33.9-128.5 63.8-143.1 66.4-16.9 3-30.3 1.3-36.5-4.6-5.4-5.1-9.7-17.9-9.5-28.4 0.3-15.4 9.2-23.5 47.9-43.5 26.1-13.5 59.5-34.6 100.7-69.4l-68.4 25.8c-37.7 14.2-76.2 25.9-85.6 26.1-14.5 0.2-17.1-3.8-17.1-26.4 0-21.4 6.1-32.1 31.1-55.1 24.1-22.1 30.3-32.7 27.7-47.5-1.9-10.4-5.6-25-8.3-32.3-4.2-11.4 0-13.3 29.4-13.3 25.2 0 38.8 4.5 51.8 17.1 9.7 9.4 19.1 21.6 20.9 27 2.5 7.3 18.3 3 60.3-16.1 31.4-14.3 63.9-27.8 72.3-29.9 8.4-2.2 19.5-4.3 24.7-4.8zm186.3 136.3c3.2-0.2 5.7 4.8 5.7 11 0 6.3-11.1 22.7-24.7 36.5-13.6 13.8-33.3 30.8-62.7 50.5l15.2 15.4c8.3 8.5 13.1 19.7 10.5 24.9-2.6 5.3-20.6 13.8-40 19.1-28.4 7.6-34.2 12-30.3 22.8 2.6 7.3 9.3 25.2 14.8 39.9 8.8 23.1 10.1 24.1 10.2 7.6 0.1-18.1 0.7-18.4 13.6-5.9 7.5 7.2 20.4 13.2 28.8 13.3 8.3 0.1 28 3.7 43.7 7.8 22.9 6.1 28.2 10.8 26.6 24-1.1 10 7.7 26.3 22.8 41.8 18.5 19 23.6 29.7 20.1 42.5-2.6 9.4-13.7 26.6-24.7 38.3-11 11.6-48.3 34.7-145.6 81.4l0.1 241.4c0.1 202.5-1.8 244-11.4 258.4-8.2 12.3-18.9 17.1-38.1 17.1-18.2 0-32.6-6-45.6-19-10.5-10.5-19-25-19.1-32.3 0-7.3 6.9-27 15.3-43.7 13.4-26.5 16.3-53.4 22.3-209.1 3.8-98.2 6.4-179.2 5.6-179.9-0.7-0.8-26 6.1-56.2 15.2-43.1 12.9-59.5 14.8-76.1 8.6-16.8-6.2-21.1-12.6-21.1-54.7l-43.7 33.2c-24.1 18.3-47.2 33.2-51.3 33.2-4.2 0-8.5 2.6-9.5 5.7-1.1 3.2-18.2 13.4-38.1 22.8-19.8 9.4-42.9 17.1-51.3 17.1-8.4 0-24.6-8-57-35.7l16.4-25.9c9-14.2 34.7-43.2 57-64.5 22.4-21.2 60.8-50.3 85.4-64.6 24.7-14.2 46-28.5 47.6-31.6 1.5-3.1-6.7-3.4-18.2-0.7-11.5 2.8-43.2 15.1-70.4 27.3-27.2 12.2-67.4 24.5-89.4 27.2-36.7 4.7-40 3.8-39.8-10.1 0.1-8.4 2.7-19 5.8-23.7 3.1-4.7 19.3-15.6 36-24.3 16.7-8.7 40.7-24.7 76-55.3l-22.8 11.1c-12.5 6-31.4 11.9-41.8 12.9-10.5 1-25 1.3-32.3 0.7-8.8-0.8-13.3-7.6-13.3-20.2 0-14 4-19 15.2-19 8.3 0 20.3-8.6 26.6-19 6.3-10.5 15.7-19 20.9-18.9 5.2 0 28.3-11.2 51.3-24.9 23-13.8 117.1-58.8 209.2-100 92-41.2 189.5-86.3 216.7-100.2 27.2-13.8 52-25.3 55.1-25.5zm-279.4 254.1c-54.2 31.9-77.7 49.3-66.6 49.4 9.4 0.1 24 3.6 32.3 7.8 11.7 5.8 30.3 1.8 79.7-17.1 50.5-19.4 64.5-28 64.9-39.9 0.3-8.4-5.6-22.9-13.1-32.3l-13.6-17.1zm-10.9 148.8c-6 14.4-12 28.7-13.3 31.9-1.3 3.1 25-14.8 58.4-39.9 33.5-25.1 64.3-45.6 68.5-45.6 4.1 0 7.6-3.5 7.6-7.6 0-4.2-4.3-7.6-9.5-7.6-5.3 0-30.1 9.6-55.2 21.3-35.8 16.7-47.9 27-56.5 47.5zm174.5-17.5c-0.1 6.3 9.3 4.1 28.4-6.9 15.7-9 33.5-21 39.7-26.6 9.6-8.9 9.1-10.2-3.8-9.8-8.2 0.3-26 8-39.6 17.1-13.5 9.2-24.6 20.9-24.7 26.2zm216.6 142.5l17.2 34.2c9.4 18.8 17.1 43.6 17.1 55.1 0 11.7-7.6 28-17.2 37.1-13.1 12.5-22.4 15.1-39.9 11.2-12.5-2.8-39.9-16.8-60.8-31.1-20.9-14.3-47.5-27.8-59-30.1-11.6-2.3-19.8-8.4-18.4-13.7 1.4-5.2 10.8-10.5 39.4-14l-38.1-36.8 26.6-7.3c14.7-4 50.6-6.7 133.1-4.6z"/>
		<path id="Path 2" class="s0" d="m809.7 85c-19.5 26.4-46.3 71.1-59.5 99.4-13.2 28.2-25.7 51.3-27.8 51.2-2.1 0-1.2-22.3 1.9-49.4 3.2-27.2 2.8-55.4-0.8-62.7-3.7-7.3-21.6-26.2-40-42-18.3-15.7-39.3-28.5-46.6-28.5-7.3 0.1-22.4 14.7-33.5 32.5-11 17.8-29.6 56.3-41.2 85.5-11.6 29.3-23.1 62.6-25.5 74.1-3.4 16.4-1.9 20.1 7 17.1 6.3-2 11.4 0.5 11.3 5.7-0.1 5.3-8.6 18.1-18.9 28.6-12.2 12.3-22.9 37.5-30.8 72.2-6.7 29.2-14.1 97.6-16.5 152-2.9 67.1-1.5 104.3 4.4 115.9 7.3 14.3 14.9 17.1 46.7 17.1 27 0 37.2-2.7 35-9.5-1.7-5.2-5.5-38.6-8.6-74.1-3.3-38.6-1.9-96.8 3.5-144.4 4.9-43.9 17-110.6 26.8-148.3 9.9-37.6 26.8-88.9 37.7-114 10.9-25.1 21.6-43.9 24-41.8 2.3 2.1 0.2 39.7-4.7 83.6-4.9 43.9-7.6 140.4-6.1 214.5 2.1 107.1 5 136.9 14.1 145.8 6.3 6.1 24.6 13.9 40.7 17.3l29.3 6.3c-8.4-71.6-6.9-117.4-1.9-152 4.9-33.5 14.4-81.4 21.2-106.4 6.8-25.1 22.1-69.6 34.1-98.9 12-29.2 32.8-69.5 46.2-89.5 13.4-20 24.8-35.4 25.4-34.2 0.6 1.2-7 38-16.9 81.9-9.9 43.9-20.3 112.3-23 152.1-2.8 39.7-2.9 95.3-0.2 123.5 3.4 36.6 9.2 55.7 20 66.5q15.2 15.2 45.6 15.2c25.6 0 29.7-2.1 26-13.3-2.4-7.3-7.9-33.8-12.1-58.9-4.3-25.1-5.8-79.8-3.4-121.6 2.4-41.8 12-112 21.3-155.9l16.9-79.8c-41.8-59.4-60.4-77-69.5-78.4-12.2-1.8-24.7 9.2-51.6 45.6z"/>
		<path id="Path 3" fill-rule="evenodd" class="s1" d="m477.2 98.8c9.4 0 17.1 2.6 17.2 5.7 0.1 3.2-5 22.8-11.3 43.7-6.3 20.9-11.6 41.5-11.8 45.6-0.2 4.2 10.1 12.8 23 19 12.9 6.3 23.3 13.2 23.2 15.2-0.2 2.1-14.8 10.7-32.6 19-22.4 10.5-33 20.5-34.3 32.3-1.6 14.4 0.8 16.4 15.2 12.4 9.4-2.6 26.5-9.5 38-15.2 11.5-5.8 20.9-7.9 20.8-4.8-0.1 3.2 4 1.5 9.1-3.8 5.1-5.2 12-9.5 15.3-9.5 3.4 0 6.1 5.2 6.1 11.4 0 6.3-11.9 21.7-26.6 34.3-14.6 12.5-42.1 30.5-61 39.9-19 9.4-36 22.2-37.8 28.5-1.9 6.2-8.9 45.6-15.6 87.4-6.7 41.8-13.7 77.7-15.6 79.8-1.9 2.1-9.3-2.3-16.6-9.8-9.7-10.1-13.6-29-15-74.1-1-33.3-3.6-60.5-5.7-60.5-2.1 0-20.9 8.5-41.8 19-28.6 14.3-39.1 24.2-42.2 39.9-2.3 11.5-6.6 30.4-9.5 42-5.1 20.1-6.2 20.6-22.5 9.5-9.4-6.4-17.1-18.5-17.1-26.8 0-12.3-3.3-14.2-17.1-9.9-9.4 2.9-25.6 4.8-36.1 4.2-10.5-0.6-27.2-7.2-37.3-14.8-10-7.5-19.4-18-20.9-23.2-1.5-5.6 12.3-14.8 33.5-22.2 19.9-6.9 47.2-17.2 60.8-22.8 18.6-7.6 24.7-14.8 24.7-29.1 0-10.5-0.8-19.1-1.9-19.2-1-0.1-17.3 5.1-36.1 11.6-18.8 6.4-36.8 11.6-39.9 11.5-3.1-0.1-5.7-10.4-5.7-22.9 0-12.6 2.6-28.1 5.7-34.6 3.1-6.5 22.8-17.2 43.7-23.8 20.9-6.5 40.7-14.1 43.9-16.7 3.2-2.6 10.1-23.6 15.3-46.6 9-39.3 11.4-42.4 41.3-53.2 17.5-6.2 34.5-8.7 37.9-5.3 3.4 3.3 2.1 22.1-2.8 41.8-4.9 19.6-7.4 37.5-5.6 39.5 1.7 2.1 15.7-1.3 31.1-7.6 25.9-10.5 28.6-14.8 38-58.9 8.5-40.3 13.8-49.8 34.8-62.7 13.6-8.3 32.4-15.1 41.8-15.2zm-174.2 233.6c-2.8 11.6-4.5 21.9-3.8 22.8 0.6 1 16.6-4 35.4-11.1 18.8-7.1 36.7-16.4 39.8-20.8 3.1-4.3 5.6-13.8 5.7-21.1 0.1-7.4-2.4-13.1-5.6-12.7-3.1 0.3-19.4 5.3-36.1 11.2-23 8-31.6 15.7-35.4 31.7z"/>
	</g>
</svg>